<?xml version="1.0" encoding="utf-8"?>
<!-- Generator: Adobe Illustrator 26.2.1, SVG Export Plug-In . SVG Version: 6.00 Build 0)  -->
<svg version="1.1" id="Слой_1" xmlns="http://www.w3.org/2000/svg" xmlns:xlink="http://www.w3.org/1999/xlink" x="0px" y="0px"
	 viewBox="0 0 28.35 28.35" style="enable-background:new 0 0 28.35 28.35;" xml:space="preserve">
<g>
	<g>
		<path d="M1.78,26.63c0.01-0.05,0.01-0.08,0.02-0.11c0.29-1.07,0.59-2.14,0.88-3.22c0.27-0.98,0.53-1.96,0.81-2.94
			c0.02-0.09,0.01-0.16-0.03-0.23c-0.54-0.96-0.95-1.97-1.21-3.04c-0.12-0.47-0.21-0.95-0.27-1.43c-0.08-0.61-0.11-1.22-0.1-1.84
			c0.01-0.37,0.03-0.74,0.07-1.1c0.1-0.9,0.29-1.77,0.58-2.63c1.28-3.76,4.31-6.69,8.12-7.85c0.54-0.16,1.09-0.29,1.64-0.37
			c0.32-0.05,0.65-0.09,0.98-0.11c0.3-0.02,0.61-0.04,0.91-0.04c0.44,0,0.89,0.02,1.33,0.07c1.44,0.15,2.8,0.53,4.1,1.16
			c2.92,1.42,5.18,3.95,6.26,6.99c0.25,0.7,0.43,1.41,0.54,2.14c0.07,0.45,0.12,0.9,0.14,1.35c0.02,0.3,0.02,0.6,0.01,0.9
			c-0.01,0.36-0.03,0.72-0.07,1.08c-0.08,0.75-0.23,1.5-0.45,2.22c-0.63,2.06-1.72,3.84-3.27,5.34c-1.35,1.31-2.93,2.25-4.71,2.84
			c-0.58,0.19-1.17,0.34-1.77,0.44c-0.39,0.06-0.78,0.11-1.17,0.14c-0.54,0.04-1.09,0.05-1.63,0.01c-1.78-0.11-3.47-0.58-5.05-1.41
			c-0.01,0-0.02-0.01-0.02-0.01c-0.07-0.05-0.14-0.05-0.22-0.03c-0.36,0.1-0.71,0.19-1.07,0.28c-1.39,0.37-2.78,0.73-4.17,1.1
			c-0.34,0.09-0.68,0.18-1.02,0.27C1.89,26.6,1.85,26.61,1.78,26.63z M4.73,23.71c0.05-0.01,0.08-0.01,0.11-0.02
			c0.6-0.16,1.19-0.31,1.79-0.47c0.62-0.16,1.25-0.32,1.87-0.49c0.08-0.02,0.15-0.01,0.22,0.03c0.1,0.07,0.21,0.12,0.31,0.18
			c1.42,0.83,2.96,1.29,4.6,1.39c0.56,0.03,1.12,0.02,1.67-0.04c0.42-0.05,0.83-0.11,1.24-0.21c1.5-0.35,2.86-1.01,4.06-1.97
			c2.35-1.87,3.82-4.69,3.89-7.84c0.01-0.61-0.03-1.21-0.12-1.81c-0.11-0.71-0.29-1.41-0.55-2.08c-0.53-1.39-1.33-2.6-2.39-3.64
			c-1.83-1.78-4.02-2.76-6.56-2.94c-0.48-0.03-0.97-0.03-1.45,0.01c-0.36,0.03-0.72,0.08-1.07,0.14c-0.7,0.13-1.38,0.33-2.04,0.6
			C7.92,5.56,5.99,7.4,4.9,9.74c-0.53,1.13-0.84,2.32-0.93,3.57c-0.03,0.42-0.04,0.84-0.01,1.26c0.03,0.48,0.08,0.96,0.17,1.43
			c0.2,1.03,0.54,2.01,1.04,2.94c0.16,0.29,0.33,0.56,0.5,0.85c0.09,0.15,0.1,0.11,0.05,0.29c-0.09,0.32-0.18,0.65-0.27,0.97
			c-0.23,0.84-0.46,1.68-0.69,2.52C4.75,23.61,4.74,23.65,4.73,23.71z"/>
		<path d="M17.47,20.01c-0.41-0.01-0.79-0.05-1.16-0.16c-0.67-0.21-1.33-0.44-1.97-0.73c-0.77-0.35-1.47-0.8-2.13-1.33
			c-0.84-0.67-1.59-1.45-2.27-2.28C9.61,15.09,9.3,14.66,9,14.22c-0.37-0.53-0.66-1.11-0.86-1.73c-0.17-0.52-0.23-1.04-0.18-1.58
			c0.07-0.68,0.31-1.29,0.75-1.81c0.11-0.13,0.23-0.26,0.34-0.38C9.29,8.48,9.57,8.36,9.9,8.36c0.23,0,0.46,0.01,0.69,0.02
			c0.11,0,0.2,0.04,0.27,0.12c0.06,0.06,0.11,0.13,0.15,0.2c0.05,0.1,0.1,0.2,0.14,0.3c0.28,0.67,0.56,1.35,0.84,2.02
			c0.03,0.08,0.07,0.15,0.1,0.23c0.08,0.17,0.08,0.34-0.01,0.52c-0.1,0.2-0.21,0.4-0.37,0.57c-0.15,0.17-0.3,0.35-0.46,0.52
			c-0.04,0.04-0.07,0.09-0.1,0.13c-0.05,0.09-0.07,0.19-0.03,0.29c0.02,0.06,0.04,0.11,0.07,0.16c0.49,0.82,1.07,1.57,1.8,2.2
			c0.62,0.54,1.3,0.97,2.05,1.3c0.13,0.06,0.26,0.12,0.39,0.17c0.06,0.03,0.12,0.05,0.18,0.07c0.13,0.04,0.26,0.01,0.36-0.08
			c0.04-0.03,0.07-0.06,0.1-0.1c0.27-0.33,0.54-0.65,0.81-0.98c0.05-0.06,0.1-0.13,0.15-0.2c0.01-0.02,0.03-0.04,0.04-0.06
			c0.13-0.17,0.24-0.22,0.49-0.16c0.11,0.03,0.22,0.07,0.32,0.12c0.52,0.24,1.03,0.49,1.55,0.74c0.22,0.11,0.45,0.22,0.67,0.33
			c0.07,0.03,0.14,0.07,0.21,0.11c0.1,0.06,0.15,0.15,0.15,0.26c0,0.14,0.01,0.28-0.01,0.41c-0.03,0.26-0.09,0.52-0.16,0.77
			c-0.07,0.25-0.21,0.46-0.39,0.64c-0.1,0.1-0.2,0.19-0.31,0.27c-0.28,0.22-0.58,0.38-0.91,0.52c-0.25,0.11-0.52,0.17-0.79,0.19
			C17.75,19.99,17.59,20,17.47,20.01z"/>
	</g>
</g>
</svg>
